<svg xmlns="http://www.w3.org/2000/svg" viewBox="0 0 254.65 148.93"><defs><style>.cls-1{isolation:isolate;}.cls-2,.cls-3,.cls-4,.cls-5{font-size:87.9px;font-family:Oduda-Bold, Oduda;font-weight:700;}.cls-2{fill:#588b8b;}.cls-3{fill:#c8553d;}.cls-4,.cls-6{fill:#707071;}.cls-5{fill:#f28f3b;}</style></defs><g id="Layer_2" data-name="Layer 2"><g id="Layer_1-2" data-name="Layer 1"><g id="smoda" class="cls-1"><g class="cls-1"><text class="cls-2" transform="translate(0 76.47)">s</text></g><g class="cls-1"><text class="cls-3" transform="translate(33.67 76.47)">m</text></g><g class="cls-1"><text class="cls-4" transform="translate(103.37 76.47)">o</text></g><g class="cls-1"><text class="cls-5" transform="translate(153.65 76.47)">d</text></g><g class="cls-1"><text class="cls-4" transform="translate(203.49 76.47)">a</text></g></g><path class="cls-6" d="M179,148.93c-28.29,0-51.95-22.81-53-51.37a8.44,8.44,0,0,1,16.87-.62A36.45,36.45,0,0,0,179,132.05h.77c19-.41,34.86-16.37,35.25-35.57a8.44,8.44,0,0,1,16.88.35A53.08,53.08,0,0,1,216.3,133.3a52.49,52.49,0,0,1-36.2,15.62Z"/><path class="cls-6" d="M128.47,57.12c3.21,0,3.22-5,0-5s-3.23,5,0,5Z"/><path class="cls-6" d="M228.7,57.12c3.22,0,3.22-5,0-5s-3.22,5,0,5Z"/></g></g></svg>